<svg width="100%" viewBox="0 0 432 172" fill="none" xmlns="http://www.w3.org/2000/svg">
<path opacity="0.5" d="M21.2334 169H20.3301V164.464H17.8984V169H16.9902V163.717H21.2334V169ZM27 169H26.0967V166.744H23.6699V169H22.7617V163.717H23.6699V166.007H26.0967V163.717H27V169Z" fill="#282846"/>
<path opacity="0.5" d="M84.0371 169V163.717H86.0977C86.8008 163.717 87.3395 163.84 87.7139 164.088C88.0915 164.332 88.2803 164.692 88.2803 165.167C88.2803 165.411 88.207 165.632 88.0605 165.831C87.9141 166.026 87.6976 166.176 87.4111 166.28C87.7301 166.355 87.9857 166.502 88.1777 166.72C88.373 166.938 88.4707 167.198 88.4707 167.501C88.4707 167.986 88.2917 168.357 87.9336 168.614C87.5788 168.871 87.0758 169 86.4248 169H84.0371ZM84.9404 166.681V168.272H86.4346C86.8122 168.272 87.0938 168.202 87.2793 168.062C87.4681 167.923 87.5625 167.726 87.5625 167.472C87.5625 166.944 87.1751 166.681 86.4004 166.681H84.9404ZM84.9404 165.958H86.1074C86.9538 165.958 87.377 165.711 87.377 165.216C87.377 164.721 86.9766 164.465 86.1758 164.449H84.9404V165.958ZM93.5342 164.449H91.7617V169H90.8584V164.449H89.1201V163.717H93.5342V164.449Z" fill="#282846"/>
<path opacity="0.5" d="M152.878 168.36C153.2 168.36 153.482 168.263 153.723 168.067C153.964 167.872 154.097 167.628 154.123 167.335H154.978C154.961 167.638 154.857 167.926 154.665 168.199C154.473 168.473 154.216 168.691 153.894 168.854C153.575 169.016 153.236 169.098 152.878 169.098C152.159 169.098 151.586 168.858 151.159 168.38C150.736 167.898 150.524 167.241 150.524 166.407V166.256C150.524 165.742 150.619 165.284 150.808 164.884C150.996 164.483 151.267 164.173 151.618 163.951C151.973 163.73 152.391 163.619 152.873 163.619C153.465 163.619 153.957 163.797 154.348 164.151C154.742 164.506 154.951 164.967 154.978 165.533H154.123C154.097 165.191 153.967 164.911 153.732 164.693C153.501 164.472 153.215 164.361 152.873 164.361C152.414 164.361 152.058 164.527 151.804 164.859C151.553 165.188 151.428 165.665 151.428 166.29V166.461C151.428 167.07 151.553 167.538 151.804 167.867C152.054 168.196 152.412 168.36 152.878 168.36ZM160.456 166.417C160.456 167.221 160.272 167.869 159.904 168.36C159.536 168.852 159.038 169.098 158.41 169.098C157.769 169.098 157.264 168.894 156.896 168.487V171.031H155.993V163.717H156.818L156.862 164.303C157.23 163.847 157.741 163.619 158.396 163.619C159.03 163.619 159.532 163.858 159.899 164.337C160.271 164.815 160.456 165.481 160.456 166.334V166.417ZM159.553 166.314C159.553 165.719 159.426 165.248 159.172 164.903C158.918 164.558 158.57 164.386 158.127 164.386C157.58 164.386 157.17 164.628 156.896 165.113V167.638C157.167 168.119 157.58 168.36 158.137 168.36C158.57 168.36 158.913 168.189 159.167 167.848C159.424 167.503 159.553 166.992 159.553 166.314Z" fill="#282846"/>
<path opacity="0.5" d="M222.051 169H221.143V167.086C220.745 167.19 220.339 167.242 219.922 167.242C219.261 167.242 218.757 167.073 218.408 166.734C218.063 166.396 217.887 165.914 217.881 165.289V163.712H218.784V165.318C218.8 166.106 219.18 166.5 219.922 166.5C220.339 166.5 220.745 166.448 221.143 166.344V163.717H222.051V169ZM227.427 164.449H225.654V169H224.751V164.449H223.013V163.717H227.427V164.449Z" fill="#282846"/>
<path opacity="0.5" d="M288.217 169H287.313V164.464H284.882V169H283.974V163.717H288.217V169ZM293.593 164.449H291.82V169H290.917V164.449H289.179V163.717H293.593V164.449Z" fill="#282846"/>
<path opacity="0.5" d="M352.922 168.36C353.244 168.36 353.526 168.263 353.767 168.067C354.007 167.872 354.141 167.628 354.167 167.335H355.021C355.005 167.638 354.901 167.926 354.709 168.199C354.517 168.473 354.26 168.691 353.938 168.854C353.618 169.016 353.28 169.098 352.922 169.098C352.202 169.098 351.63 168.858 351.203 168.38C350.78 167.898 350.568 167.241 350.568 166.407V166.256C350.568 165.742 350.663 165.284 350.852 164.884C351.04 164.483 351.311 164.173 351.662 163.951C352.017 163.73 352.435 163.619 352.917 163.619C353.509 163.619 354.001 163.797 354.392 164.151C354.785 164.506 354.995 164.967 355.021 165.533H354.167C354.141 165.191 354.011 164.911 353.776 164.693C353.545 164.472 353.259 164.361 352.917 164.361C352.458 164.361 352.102 164.527 351.848 164.859C351.597 165.188 351.472 165.665 351.472 166.29V166.461C351.472 167.07 351.597 167.538 351.848 167.867C352.098 168.196 352.456 168.36 352.922 168.36ZM358.356 164.02C359.021 164.02 359.551 164.243 359.948 164.688C360.349 165.131 360.549 165.715 360.549 166.441V166.524C360.549 167.022 360.453 167.468 360.261 167.862C360.069 168.253 359.792 168.557 359.431 168.775C359.073 168.99 358.659 169.098 358.19 169.098C357.481 169.098 356.91 168.862 356.477 168.39C356.044 167.914 355.827 167.278 355.827 166.48V166.041C355.827 164.931 356.032 164.049 356.442 163.395C356.856 162.74 357.465 162.341 358.269 162.198C358.724 162.117 359.032 162.018 359.191 161.9C359.351 161.783 359.431 161.622 359.431 161.417H360.173C360.173 161.824 360.08 162.141 359.895 162.369C359.712 162.597 359.419 162.758 359.016 162.853L358.342 163.004C357.805 163.131 357.401 163.346 357.131 163.648C356.864 163.948 356.69 164.348 356.608 164.85C357.087 164.296 357.67 164.02 358.356 164.02ZM358.181 164.762C357.738 164.762 357.386 164.911 357.126 165.211C356.866 165.507 356.735 165.919 356.735 166.446V166.524C356.735 167.091 356.866 167.54 357.126 167.872C357.39 168.201 357.744 168.365 358.19 168.365C358.64 168.365 358.994 168.199 359.255 167.867C359.515 167.535 359.646 167.05 359.646 166.412C359.646 165.914 359.514 165.515 359.25 165.216C358.99 164.913 358.633 164.762 358.181 164.762Z" fill="#282846"/>
<path opacity="0.5" d="M417.793 169V163.717H419.854C420.557 163.717 421.095 163.84 421.47 164.088C421.847 164.332 422.036 164.692 422.036 165.167C422.036 165.411 421.963 165.632 421.816 165.831C421.67 166.026 421.453 166.176 421.167 166.28C421.486 166.355 421.742 166.502 421.934 166.72C422.129 166.938 422.227 167.198 422.227 167.501C422.227 167.986 422.048 168.357 421.689 168.614C421.335 168.871 420.832 169 420.181 169H417.793ZM418.696 166.681V168.272H420.19C420.568 168.272 420.85 168.202 421.035 168.062C421.224 167.923 421.318 167.726 421.318 167.472C421.318 166.944 420.931 166.681 420.156 166.681H418.696ZM418.696 165.958H419.863C420.71 165.958 421.133 165.711 421.133 165.216C421.133 164.721 420.732 164.465 419.932 164.449H418.696V165.958ZM425.542 168.36C425.864 168.36 426.146 168.263 426.387 168.067C426.628 167.872 426.761 167.628 426.787 167.335H427.642C427.625 167.638 427.521 167.926 427.329 168.199C427.137 168.473 426.88 168.691 426.558 168.854C426.239 169.016 425.9 169.098 425.542 169.098C424.823 169.098 424.25 168.858 423.823 168.38C423.4 167.898 423.188 167.241 423.188 166.407V166.256C423.188 165.742 423.283 165.284 423.472 164.884C423.66 164.483 423.931 164.173 424.282 163.951C424.637 163.73 425.055 163.619 425.537 163.619C426.13 163.619 426.621 163.797 427.012 164.151C427.406 164.506 427.616 164.967 427.642 165.533H426.787C426.761 165.191 426.631 164.911 426.396 164.693C426.165 164.472 425.879 164.361 425.537 164.361C425.078 164.361 424.722 164.527 424.468 164.859C424.217 165.188 424.092 165.665 424.092 166.29V166.461C424.092 167.07 424.217 167.538 424.468 167.867C424.718 168.196 425.076 168.36 425.542 168.36Z" fill="#282846"/>
<path opacity="0.5" d="M11.4336 150.968C11.4336 152.026 11.2529 152.812 10.8916 153.326C10.5303 153.84 9.96549 154.098 9.19727 154.098C8.4388 154.098 7.87728 153.847 7.5127 153.346C7.14811 152.841 6.95931 152.089 6.94629 151.09V149.884C6.94629 148.839 7.12695 148.062 7.48828 147.555C7.84961 147.047 8.41602 146.793 9.1875 146.793C9.95247 146.793 10.5156 147.039 10.877 147.53C11.2383 148.019 11.4238 148.774 11.4336 149.796V150.968ZM10.5303 149.732C10.5303 148.967 10.4229 148.411 10.208 148.062C9.99316 147.711 9.65299 147.535 9.1875 147.535C8.72526 147.535 8.38835 147.709 8.17676 148.058C7.96517 148.406 7.85612 148.941 7.84961 149.664V151.109C7.84961 151.878 7.96029 152.446 8.18164 152.813C8.40625 153.178 8.74479 153.36 9.19727 153.36C9.64323 153.36 9.97363 153.188 10.1885 152.843C10.4066 152.498 10.5205 151.954 10.5303 151.212V149.732Z" fill="#282846"/>
<path opacity="0.5" d="M7.39062 101.436L7.75195 97.8906H11.3945V98.7256H8.51855L8.30371 100.664C8.65202 100.459 9.04753 100.356 9.49023 100.356C10.138 100.356 10.6523 100.571 11.0332 101.001C11.4141 101.427 11.6045 102.005 11.6045 102.734C11.6045 103.467 11.4059 104.045 11.0088 104.468C10.6149 104.888 10.0632 105.098 9.35352 105.098C8.72526 105.098 8.21257 104.924 7.81543 104.575C7.41829 104.227 7.19206 103.745 7.13672 103.13H7.99121C8.04655 103.537 8.19141 103.844 8.42578 104.053C8.66016 104.258 8.9694 104.36 9.35352 104.36C9.77344 104.36 10.1022 104.217 10.3398 103.931C10.5807 103.644 10.7012 103.249 10.7012 102.744C10.7012 102.269 10.571 101.888 10.3105 101.602C10.0534 101.312 9.70996 101.167 9.28027 101.167C8.88639 101.167 8.57715 101.253 8.35254 101.426L8.11328 101.621L7.39062 101.436Z" fill="#282846"/>
<path opacity="0.5" d="M4.3291 56H3.4209V49.9795L1.59961 50.6484V49.8281L4.1875 48.8564H4.3291V56ZM11.4336 52.9678C11.4336 54.0257 11.2529 54.8118 10.8916 55.3262C10.5303 55.8405 9.96549 56.0977 9.19727 56.0977C8.4388 56.0977 7.87728 55.847 7.5127 55.3457C7.14811 54.8411 6.95931 54.0892 6.94629 53.0898V51.8838C6.94629 50.8389 7.12695 50.0625 7.48828 49.5547C7.84961 49.0469 8.41602 48.793 9.1875 48.793C9.95247 48.793 10.5156 49.0387 10.877 49.5303C11.2383 50.0186 11.4238 50.7738 11.4336 51.7959V52.9678ZM10.5303 51.7324C10.5303 50.9674 10.4229 50.4108 10.208 50.0625C9.99316 49.7109 9.65299 49.5352 9.1875 49.5352C8.72526 49.5352 8.38835 49.7093 8.17676 50.0576C7.96517 50.4059 7.85612 50.9414 7.84961 51.6641V53.1094C7.84961 53.8776 7.96029 54.4456 8.18164 54.8135C8.40625 55.1781 8.74479 55.3604 9.19727 55.3604C9.64323 55.3604 9.97363 55.1878 10.1885 54.8428C10.4066 54.4977 10.5205 53.9541 10.5303 53.2119V51.7324Z" fill="#282846"/>
<path opacity="0.5" d="M4.3291 8H3.4209V1.97949L1.59961 2.64844V1.82812L4.1875 0.856445H4.3291V8ZM7.39062 4.43555L7.75195 0.890625H11.3945V1.72559H8.51855L8.30371 3.66406C8.65202 3.45898 9.04753 3.35645 9.49023 3.35645C10.138 3.35645 10.6523 3.57129 11.0332 4.00098C11.4141 4.42741 11.6045 5.00521 11.6045 5.73438C11.6045 6.4668 11.4059 7.0446 11.0088 7.46777C10.6149 7.8877 10.0632 8.09766 9.35352 8.09766C8.72526 8.09766 8.21257 7.9235 7.81543 7.5752C7.41829 7.22689 7.19206 6.74512 7.13672 6.12988H7.99121C8.04655 6.53678 8.19141 6.8444 8.42578 7.05273C8.66016 7.25781 8.9694 7.36035 9.35352 7.36035C9.77344 7.36035 10.1022 7.21712 10.3398 6.93066C10.5807 6.64421 10.7012 6.2487 10.7012 5.74414C10.7012 5.26888 10.571 4.88802 10.3105 4.60156C10.0534 4.31185 9.70996 4.16699 9.28027 4.16699C8.88639 4.16699 8.57715 4.25326 8.35254 4.42578L8.11328 4.62109L7.39062 4.43555Z" fill="#282846"/>
<path d="M22 5V151" stroke="#F0F0F0"/>
<path d="M88 5V151" stroke="#F0F0F0"/>
<path d="M155 5V151" stroke="#F0F0F0"/>
<path d="M222 5V151" stroke="#F0F0F0"/>
<path d="M288 5V151" stroke="#F0F0F0"/>
<path d="M355 5V151" stroke="#F0F0F0"/>
<path d="M422 5V151" stroke="#F0F0F0"/>
<path d="M22 151H422" stroke="#F0F0F0"/>
<path d="M22 102H422" stroke="#F0F0F0"/>
<path d="M22 53H422" stroke="#F0F0F0"/>
<path d="M22 5H422" stroke="#F0F0F0"/>
<path opacity="0.4" d="M22 141C22 141 55 121 88 121C122 121 122 102 155 102C188 102 188 82 222 82C255 82 255 63 288 63C322 63 322 43 355 43C388 43 422 34 422 34" stroke="#29A19C" stroke-width="2"/>
<circle cx="22" cy="141" r="4" fill="#A6CEE3"/>
<circle cx="88" cy="121" r="4" fill="#A6CEE3"/>
<circle cx="155" cy="102" r="4" fill="#A6CEE3"/>
<circle opacity="0.4" cx="222" cy="82" r="3.5" fill="#29A19C" stroke="#29A19C"/>
<circle opacity="0.4" cx="288" cy="63" r="3.5" fill="#29A19C" stroke="#29A19C"/>
<circle opacity="0.4" cx="355" cy="43" r="3.5" fill="#29A19C" stroke="#29A19C"/>
<circle cx="422" cy="34" r="4" fill="#A6CEE3"/>
<path d="M22 141C22 141 55 121 88 121C122 121 122 102 155 102C188 102 188 92 222 92C255 92 255 73 288 73C322 73 322 53 355 53C388 53 422 34 422 34" stroke="#29A19C" stroke-width="2"/>
<circle cx="22" cy="141" r="3.5" fill="#29A19C" stroke="#29A19C"/>
<circle cx="88" cy="121" r="3.5" fill="#29A19C" stroke="#29A19C"/>
<circle cx="155" cy="102" r="3.5" fill="#29A19C" stroke="#29A19C"/>
<circle cx="222" cy="92" r="3.5" fill="#29A19C" stroke="#29A19C"/>
<circle cx="288" cy="73" r="3.5" fill="#29A19C" stroke="#29A19C"/>
<circle cx="355" cy="53" r="3.5" fill="#29A19C" stroke="#29A19C"/>
<circle cx="422" cy="34" r="3.5" fill="#29A19C" stroke="#29A19C"/>
</svg>
