<svg width="19" height="18" viewBox="0 0 19 18" fill="none" xmlns="http://www.w3.org/2000/svg">
<path fill-rule="evenodd" clip-rule="evenodd" d="M2.04159 3.04159C2.42839 2.6548 2.95299 2.4375 3.5 2.4375H8.75C9.06066 2.4375 9.3125 2.68934 9.3125 3C9.3125 3.31066 9.06066 3.5625 8.75 3.5625H3.5C3.25136 3.5625 3.0129 3.66127 2.83709 3.83709C2.66127 4.0129 2.5625 4.25136 2.5625 4.5V15C2.5625 15.2486 2.66127 15.4871 2.83709 15.6629C3.0129 15.8387 3.25136 15.9375 3.5 15.9375H14C14.2486 15.9375 14.4871 15.8387 14.6629 15.6629C14.8387 15.4871 14.9375 15.2486 14.9375 15V9.75C14.9375 9.43934 15.1893 9.1875 15.5 9.1875C15.8107 9.1875 16.0625 9.43934 16.0625 9.75V15C16.0625 15.547 15.8452 16.0716 15.4584 16.4584C15.0716 16.8452 14.547 17.0625 14 17.0625H3.5C2.95299 17.0625 2.42839 16.8452 2.04159 16.4584C1.6548 16.0716 1.4375 15.547 1.4375 15V4.5C1.4375 3.95299 1.6548 3.42839 2.04159 3.04159Z" fill="#282846"/>
<path fill-rule="evenodd" clip-rule="evenodd" d="M15.5 1.97144C15.2272 1.97144 14.9656 2.07979 14.7728 2.27267L7.75793 9.2875L7.27309 11.2268L9.21243 10.742L16.2273 3.72718C16.4201 3.5343 16.5285 3.2727 16.5285 2.99993C16.5285 2.72715 16.4201 2.46555 16.2273 2.27267C16.0344 2.07979 15.7728 1.97144 15.5 1.97144ZM13.9773 1.47718C14.3811 1.07332 14.9289 0.846436 15.5 0.846436C16.0712 0.846436 16.6189 1.07332 17.0228 1.47718C17.4266 1.88104 17.6535 2.42878 17.6535 2.99993C17.6535 3.57107 17.4266 4.11882 17.0228 4.52267L9.89776 11.6477C9.82567 11.7198 9.73534 11.7709 9.63644 11.7956L6.63644 12.5456C6.44475 12.5936 6.24198 12.5374 6.10226 12.3977C5.96255 12.258 5.90639 12.0552 5.95431 11.8635L6.70431 8.8635C6.72903 8.76459 6.78017 8.67427 6.85226 8.60218L13.9773 1.47718Z" fill="#282846"/>
</svg>
