<svg width="310" height="22" viewBox="0 0 310 22" fill="none" xmlns="http://www.w3.org/2000/svg">
<g opacity="0.4">
<line opacity="0.5" y1="10.5" x2="123.5" y2="10.5" stroke="#282846"/>
<path d="M143.572 16.144C142.836 16.144 142.127 16.0587 141.444 15.888C140.772 15.7173 140.185 15.4613 139.684 15.12C139.481 14.9813 139.359 14.816 139.316 14.624C139.273 14.4213 139.289 14.24 139.364 14.08C139.449 13.9093 139.572 13.792 139.732 13.728C139.903 13.664 140.095 13.7013 140.308 13.84C140.788 14.1493 141.295 14.3787 141.828 14.528C142.361 14.6667 142.943 14.736 143.572 14.736C144.479 14.736 145.145 14.576 145.572 14.256C146.009 13.9253 146.228 13.4987 146.228 12.976C146.228 12.5493 146.073 12.2133 145.764 11.968C145.455 11.712 144.937 11.5093 144.212 11.36L142.5 11.008C141.487 10.7947 140.729 10.4427 140.228 9.952C139.737 9.46133 139.492 8.8 139.492 7.968C139.492 7.296 139.668 6.704 140.02 6.192C140.383 5.68 140.884 5.28533 141.524 5.008C142.164 4.72 142.9 4.576 143.732 4.576C144.393 4.576 145.012 4.66133 145.588 4.832C146.175 5.00267 146.697 5.264 147.156 5.616C147.337 5.744 147.444 5.89867 147.476 6.08C147.508 6.26133 147.481 6.432 147.396 6.592C147.311 6.74133 147.183 6.84267 147.012 6.896C146.841 6.94933 146.644 6.90667 146.42 6.768C146.004 6.49067 145.577 6.29333 145.14 6.176C144.703 6.048 144.228 5.984 143.716 5.984C142.927 5.984 142.297 6.16 141.828 6.512C141.369 6.864 141.14 7.33333 141.14 7.92C141.14 8.368 141.284 8.72533 141.572 8.992C141.86 9.25867 142.34 9.46133 143.012 9.6L144.708 9.952C145.775 10.176 146.569 10.5227 147.092 10.992C147.615 11.4507 147.876 12.0747 147.876 12.864C147.876 13.5253 147.7 14.1013 147.348 14.592C146.996 15.0827 146.5 15.4667 145.86 15.744C145.22 16.0107 144.457 16.144 143.572 16.144ZM150.709 16.112C150.186 16.112 149.925 15.8453 149.925 15.312V5.44C149.925 5.17333 149.989 4.97067 150.117 4.832C150.256 4.68267 150.437 4.608 150.661 4.608C150.853 4.608 151.002 4.64533 151.109 4.72C151.216 4.784 151.333 4.90667 151.461 5.088L157.653 13.248V5.392C157.653 4.86933 157.909 4.608 158.421 4.608C158.933 4.608 159.189 4.86933 159.189 5.392V15.328C159.189 15.5733 159.125 15.7653 158.997 15.904C158.88 16.0427 158.72 16.112 158.517 16.112C158.314 16.112 158.154 16.0747 158.037 16C157.92 15.9253 157.792 15.7973 157.653 15.616L151.461 7.44V15.312C151.461 15.8453 151.21 16.112 150.709 16.112ZM165.736 16.144C165 16.144 164.29 16.0587 163.608 15.888C162.936 15.7173 162.349 15.4613 161.848 15.12C161.645 14.9813 161.522 14.816 161.48 14.624C161.437 14.4213 161.453 14.24 161.528 14.08C161.613 13.9093 161.736 13.792 161.896 13.728C162.066 13.664 162.258 13.7013 162.472 13.84C162.952 14.1493 163.458 14.3787 163.992 14.528C164.525 14.6667 165.106 14.736 165.736 14.736C166.642 14.736 167.309 14.576 167.736 14.256C168.173 13.9253 168.392 13.4987 168.392 12.976C168.392 12.5493 168.237 12.2133 167.928 11.968C167.618 11.712 167.101 11.5093 166.376 11.36L164.664 11.008C163.65 10.7947 162.893 10.4427 162.392 9.952C161.901 9.46133 161.656 8.8 161.656 7.968C161.656 7.296 161.832 6.704 162.184 6.192C162.546 5.68 163.048 5.28533 163.688 5.008C164.328 4.72 165.064 4.576 165.896 4.576C166.557 4.576 167.176 4.66133 167.752 4.832C168.338 5.00267 168.861 5.264 169.32 5.616C169.501 5.744 169.608 5.89867 169.64 6.08C169.672 6.26133 169.645 6.432 169.56 6.592C169.474 6.74133 169.346 6.84267 169.176 6.896C169.005 6.94933 168.808 6.90667 168.584 6.768C168.168 6.49067 167.741 6.29333 167.304 6.176C166.866 6.048 166.392 5.984 165.88 5.984C165.09 5.984 164.461 6.16 163.992 6.512C163.533 6.864 163.304 7.33333 163.304 7.92C163.304 8.368 163.448 8.72533 163.736 8.992C164.024 9.25867 164.504 9.46133 165.176 9.6L166.872 9.952C167.938 10.176 168.733 10.5227 169.256 10.992C169.778 11.4507 170.04 12.0747 170.04 12.864C170.04 13.5253 169.864 14.1013 169.512 14.592C169.16 15.0827 168.664 15.4667 168.024 15.744C167.384 16.0107 166.621 16.144 165.736 16.144Z" fill="#282846"/>
<line opacity="0.5" x1="186.5" y1="10.5" x2="310" y2="10.5" stroke="#282846"/>
</g>
</svg>
