<svg width="19" height="18" viewBox="0 0 19 18" fill="none" xmlns="http://www.w3.org/2000/svg">
<path fill-rule="evenodd" clip-rule="evenodd" d="M2.1875 4.5C2.1875 4.18934 2.43934 3.9375 2.75 3.9375H16.25C16.5607 3.9375 16.8125 4.18934 16.8125 4.5C16.8125 4.81066 16.5607 5.0625 16.25 5.0625H2.75C2.43934 5.0625 2.1875 4.81066 2.1875 4.5Z" fill="#F05454"/>
<path fill-rule="evenodd" clip-rule="evenodd" d="M8 2.0625C7.75136 2.0625 7.5129 2.16127 7.33709 2.33709C7.16127 2.5129 7.0625 2.75136 7.0625 3V3.9375H11.9375V3C11.9375 2.75136 11.8387 2.5129 11.6629 2.33709C11.4871 2.16127 11.2486 2.0625 11 2.0625H8ZM13.0625 3.9375V3C13.0625 2.45299 12.8452 1.92839 12.4584 1.54159C12.0716 1.1548 11.547 0.9375 11 0.9375H8C7.45299 0.9375 6.92839 1.1548 6.54159 1.54159C6.1548 1.92839 5.9375 2.45299 5.9375 3V3.9375H4.25C3.93934 3.9375 3.6875 4.18934 3.6875 4.5V15C3.6875 15.547 3.9048 16.0716 4.29159 16.4584C4.67839 16.8452 5.20299 17.0625 5.75 17.0625H13.25C13.797 17.0625 14.3216 16.8452 14.7084 16.4584C15.0952 16.0716 15.3125 15.547 15.3125 15V4.5C15.3125 4.18934 15.0607 3.9375 14.75 3.9375H13.0625ZM4.8125 5.0625V15C4.8125 15.2486 4.91127 15.4871 5.08709 15.6629C5.2629 15.8387 5.50136 15.9375 5.75 15.9375H13.25C13.4986 15.9375 13.7371 15.8387 13.9129 15.6629C14.0887 15.4871 14.1875 15.2486 14.1875 15V5.0625H4.8125Z" fill="#F05454"/>
</svg>
