<svg width="32" height="32" viewBox="0 0 32 32" fill="none" xmlns="http://www.w3.org/2000/svg">
<path d="M32 0H0V32H32V0Z" fill="#4DA0F1"/>
<path d="M4.23946 23.7208C6.36914 25.0714 8.8954 25.8531 11.6035 25.8531C19.2114 25.8531 25.3786 19.6852 25.3786 12.078C25.3786 11.888 25.3746 11.6995 25.3673 11.5115C25.6425 11.295 27.3444 9.93087 27.7615 9.05393C27.7615 9.05393 26.3795 9.6283 25.0268 9.76361C25.0241 9.76361 25.0208 9.76424 25.0182 9.76424C25.0182 9.76424 25.0208 9.76291 25.0255 9.75961C25.1501 9.67633 26.8926 8.49016 27.1285 7.07683C27.1285 7.07683 26.151 7.59861 24.7822 8.05509C24.5557 8.13037 24.3185 8.20437 24.0739 8.27298C23.1916 7.33137 21.9376 6.74365 20.5455 6.74365C17.8754 6.74365 15.7117 8.90668 15.7117 11.5748C15.7117 11.9513 15.755 12.3177 15.837 12.6696C15.4638 12.6543 9.78168 12.3357 5.9161 7.65451C5.9161 7.65451 3.60583 10.8084 7.29284 14.0516C7.29284 14.0516 6.17204 14.007 5.20508 13.4292C5.20508 13.4292 4.84993 17.2501 9.02537 18.2271C9.02537 18.2271 8.20377 18.5383 6.89303 18.3164C6.89303 18.3164 7.62602 21.4037 11.3357 21.6922C11.3357 21.6922 8.40227 24.3422 4.23813 23.7204L4.23946 23.7208Z" fill="white"/>
</svg>
